<svg width="56" height="17" viewBox="0 0 56 17" fill="none" xmlns="http://www.w3.org/2000/svg">
<path d="M0.574 14.314H6.062V11.346H1.68V9.582H6.062V6.866H1.008V5.074H6.076L5.628 3.52H7.532L7.98 5.074H12.992V6.866H7.938V9.582H12.32V11.346H7.938V14.314H13.426V16.106H0.574V14.314ZM15.022 14.706H16.1V11.962L14.644 12.326V10.38L16.1 10.016V7.44H14.784V5.676H16.1V3.73H17.92V5.676H18.998V7.44H17.92V9.568L19.138 9.26V11.206L17.92 11.514V16.4H15.022V14.706ZM19.264 7.58H22.442V6.334H19.698V4.598H22.442V3.674H24.262V4.598H27.146V6.334H24.262V7.58H27.58V9.316H19.264V7.58ZM19.558 10.422H24.262V9.596H26.082V10.422H27.286V12.158H26.082V16.4H23.212V14.636H24.262V12.158H19.558V10.422ZM21.728 12.69L22.974 15.854H21L19.754 12.69H21.728ZM38.374 15.364C37.03 14.692 35.9053 13.8753 35 12.914C34.0947 13.8753 32.97 14.692 31.626 15.364V13.334C32.522 12.83 33.278 12.242 33.894 11.57C32.914 9.99267 32.34 8.23333 32.172 6.292H33.894C33.95 7.02933 34.0667 7.71067 34.244 8.336C34.4307 8.96133 34.6827 9.55867 35 10.128C35.3173 9.55867 35.5647 8.96133 35.742 8.336C35.9287 7.71067 36.05 7.02933 36.106 6.292H37.828C37.66 8.26133 37.086 10.0207 36.106 11.57C36.722 12.242 37.478 12.83 38.374 13.334V15.364ZM28.49 16.4C28.882 15.4107 29.1573 14.3933 29.316 13.348C29.4747 12.3027 29.554 11.164 29.554 9.932V4.01H40.446V9.932C40.446 11.164 40.5253 12.3027 40.684 13.348C40.8427 14.3933 41.118 15.4107 41.51 16.4H39.466C39.1673 15.3733 38.9527 14.342 38.822 13.306C38.7007 12.27 38.64 11.1453 38.64 9.932V5.816H31.36V9.932C31.36 11.1453 31.2947 12.27 31.164 13.306C31.0427 14.342 30.8327 15.3733 30.534 16.4H28.49ZM43.204 4.066C45.7147 4.066 47.8193 4.038 49.518 3.982C51.2167 3.91667 52.9807 3.80467 54.81 3.646V5.424C53.0553 5.58267 51.324 5.69467 49.616 5.76C47.908 5.816 45.7707 5.844 43.204 5.844V4.066ZM42.7 14.412C44.24 13.992 45.1967 13.1053 45.57 11.752H42.7V9.988H48.104V9.05H49.896V9.988H55.3V11.752H52.43C52.8033 13.1053 53.76 13.992 55.3 14.412V16.26C52.64 15.56 51.114 14.0573 50.722 11.752H49.896V16.4H48.104V11.752H47.278C46.886 14.0573 45.36 15.56 42.7 16.26V14.412ZM45.878 6.18L46.774 8.938H44.828L43.932 6.18H45.878ZM49.658 6.18L50.428 8.686H48.482L47.712 6.18H49.658ZM52.346 6.012H54.25L53.298 8.938H51.394L52.346 6.012Z" fill="white"/>
<path d="M0.574 14.314H6.062V11.346H1.68V9.582H6.062V6.866H1.008V5.074H6.076L5.628 3.52H7.532L7.98 5.074H12.992V6.866H7.938V9.582H12.32V11.346H7.938V14.314H13.426V16.106H0.574V14.314ZM15.022 14.706H16.1V11.962L14.644 12.326V10.38L16.1 10.016V7.44H14.784V5.676H16.1V3.73H17.92V5.676H18.998V7.44H17.92V9.568L19.138 9.26V11.206L17.92 11.514V16.4H15.022V14.706ZM19.264 7.58H22.442V6.334H19.698V4.598H22.442V3.674H24.262V4.598H27.146V6.334H24.262V7.58H27.58V9.316H19.264V7.58ZM19.558 10.422H24.262V9.596H26.082V10.422H27.286V12.158H26.082V16.4H23.212V14.636H24.262V12.158H19.558V10.422ZM21.728 12.69L22.974 15.854H21L19.754 12.69H21.728ZM38.374 15.364C37.03 14.692 35.9053 13.8753 35 12.914C34.0947 13.8753 32.97 14.692 31.626 15.364V13.334C32.522 12.83 33.278 12.242 33.894 11.57C32.914 9.99267 32.34 8.23333 32.172 6.292H33.894C33.95 7.02933 34.0667 7.71067 34.244 8.336C34.4307 8.96133 34.6827 9.55867 35 10.128C35.3173 9.55867 35.5647 8.96133 35.742 8.336C35.9287 7.71067 36.05 7.02933 36.106 6.292H37.828C37.66 8.26133 37.086 10.0207 36.106 11.57C36.722 12.242 37.478 12.83 38.374 13.334V15.364ZM28.49 16.4C28.882 15.4107 29.1573 14.3933 29.316 13.348C29.4747 12.3027 29.554 11.164 29.554 9.932V4.01H40.446V9.932C40.446 11.164 40.5253 12.3027 40.684 13.348C40.8427 14.3933 41.118 15.4107 41.51 16.4H39.466C39.1673 15.3733 38.9527 14.342 38.822 13.306C38.7007 12.27 38.64 11.1453 38.64 9.932V5.816H31.36V9.932C31.36 11.1453 31.2947 12.27 31.164 13.306C31.0427 14.342 30.8327 15.3733 30.534 16.4H28.49ZM43.204 4.066C45.7147 4.066 47.8193 4.038 49.518 3.982C51.2167 3.91667 52.9807 3.80467 54.81 3.646V5.424C53.0553 5.58267 51.324 5.69467 49.616 5.76C47.908 5.816 45.7707 5.844 43.204 5.844V4.066ZM42.7 14.412C44.24 13.992 45.1967 13.1053 45.57 11.752H42.7V9.988H48.104V9.05H49.896V9.988H55.3V11.752H52.43C52.8033 13.1053 53.76 13.992 55.3 14.412V16.26C52.64 15.56 51.114 14.0573 50.722 11.752H49.896V16.4H48.104V11.752H47.278C46.886 14.0573 45.36 15.56 42.7 16.26V14.412ZM45.878 6.18L46.774 8.938H44.828L43.932 6.18H45.878ZM49.658 6.18L50.428 8.686H48.482L47.712 6.18H49.658ZM52.346 6.012H54.25L53.298 8.938H51.394L52.346 6.012Z" fill="url(#paint0_linear_8719_1025)"/>
<defs>
<linearGradient id="paint0_linear_8719_1025" x1="28" y1="0" x2="28" y2="17" gradientUnits="userSpaceOnUse">
<stop stop-color="#FFE55F"/>
<stop offset="1" stop-color="#FFC9EC"/>
</linearGradient>
</defs>
</svg>
