<svg width="77" height="75" viewBox="0 0 77 75" fill="none" xmlns="http://www.w3.org/2000/svg">
<g filter="url(#filter0_d_8150_4770)">
<rect x="8.5" y="10.1141" width="64" height="59.5088" rx="7.85965" fill="url(#paint0_linear_8150_4770)"/>
<path fill-rule="evenodd" clip-rule="evenodd" d="M40.5 7.86843C42.9805 7.86843 44.9913 5.85763 44.9913 3.3772L63.7983 3.3772C66.2787 3.3772 68.2895 5.388 68.2895 7.86843V42.114C68.2895 44.5945 66.2787 46.6053 63.7983 46.6053H17.2018C14.7214 46.6053 12.7106 44.5945 12.7106 42.114V7.86844C12.7106 5.388 14.7214 3.3772 17.2018 3.3772L36.0088 3.3772C36.0088 5.85763 38.0196 7.86843 40.5 7.86843Z" fill="#FEF5E6"/>
<path fill-rule="evenodd" clip-rule="evenodd" d="M36.5318 5.48248H19.4474C16.8894 5.48248 14.8158 7.55612 14.8158 10.1141V40.4298C14.8158 42.9878 16.8894 45.0614 19.4474 45.0614H61.5526C64.1106 45.0614 66.1842 42.9878 66.1842 40.4298V10.1141C66.1842 7.55611 64.1106 5.48248 61.5526 5.48248H44.4683C44.4174 5.57816 44.3632 5.67178 44.3058 5.76318H61.5526C63.9556 5.76318 65.9035 7.71114 65.9035 10.1141V40.4298C65.9035 42.8328 63.9556 44.7807 61.5526 44.7807H19.4474C17.0444 44.7807 15.0965 42.8328 15.0965 40.4298V10.1141C15.0965 7.71114 17.0445 5.76318 19.4474 5.76318H36.6943C36.6369 5.67178 36.5827 5.57816 36.5318 5.48248Z" fill="#B87C3D"/>
<g filter="url(#filter1_d_8150_4770)">
<path d="M8.5 24.7105C8.5 24.7105 18.886 37.9035 40.5 37.9035C62.114 37.9035 72.5 24.7105 72.5 24.7105V61.7632C72.5 66.1039 68.9811 69.6228 64.6404 69.6228H16.3596C12.0189 69.6228 8.5 66.1039 8.5 61.7632V24.7105Z" fill="url(#paint1_linear_8150_4770)"/>
</g>
<mask id="mask0_8150_4770" style="mask-type:alpha" maskUnits="userSpaceOnUse" x="8" y="24" width="65" height="46">
<path d="M8.5 24.7105C8.5 24.7105 18.886 37.9035 40.5 37.9035C62.114 37.9035 72.5 24.7105 72.5 24.7105V61.7632C72.5 66.1039 68.9811 69.6228 64.6404 69.6228H16.3596C12.0189 69.6228 8.5 66.1039 8.5 61.7632V24.7105Z" fill="url(#paint2_linear_8150_4770)"/>
</mask>
<g mask="url(#mask0_8150_4770)">
<rect x="0.640381" y="24.4298" width="23.0175" height="45.193" fill="url(#paint3_linear_8150_4770)" fill-opacity="0.1"/>
<rect width="23.0175" height="45.193" transform="matrix(-1 0 0 1 80.3596 24.4298)" fill="url(#paint4_linear_8150_4770)" fill-opacity="0.1"/>
</g>
<path d="M25.4768 19.7449C25.1287 20.1828 24.7582 20.6095 24.354 21.0137L24.0396 19.9583C25.1849 18.667 26.0382 17.1625 26.5771 15.4446L27.554 15.8937C27.2845 16.7021 26.9477 17.4656 26.5322 18.1842V25.7969H25.4768V19.7449ZM27.1835 18.0832H29.4066C29.4178 17.8923 29.4291 17.7127 29.4291 17.533V15.467H30.4508V17.533C30.4508 17.7127 30.4396 17.9035 30.4284 18.0832H34.1112V19.1162H31.8656V24.3821C31.8656 24.5506 31.9442 24.6404 32.1238 24.6404H32.9996C33.0894 24.6404 33.1792 24.573 33.2691 24.4607C33.3477 24.326 33.4038 23.7758 33.4375 22.8214L34.3919 23.1246C34.302 24.3372 34.1673 25.0558 34.0101 25.2692C33.8305 25.4825 33.5722 25.5948 33.2578 25.6172H31.8431C31.1694 25.6172 30.8438 25.2692 30.8438 24.573V19.1162H30.3722C30.114 22.0692 29.1933 24.2923 27.5989 25.7744L26.8129 25.0895C28.2501 23.7646 29.1035 21.7772 29.3505 19.1162H27.1835V18.0832ZM31.8992 15.6018C32.5954 16.0846 33.1905 16.5674 33.6733 17.0614L32.9435 17.7913C32.528 17.3197 31.9442 16.8032 31.2031 16.2642L31.8992 15.6018ZM35.4922 16.0958H39.9722V15.4109H41.0277V16.0958H45.5077V16.9941H41.0277V17.4881H44.5533V20.8453H44.1603C44.7442 21.3393 45.2045 21.7885 45.5413 22.1702L44.7554 22.7092C44.5757 22.4846 44.3849 22.26 44.1715 22.0355C42.4312 22.159 39.6578 22.2713 35.8627 22.3723L35.728 21.4404C37.2775 21.4179 38.6922 21.4067 39.9722 21.3842V20.8453H36.4466V17.4881H39.9722V16.9941H35.4922V16.0958ZM43.408 21.2832L43.0936 20.9913L43.3182 20.8453H41.0277V21.3618C41.9035 21.3393 42.7006 21.3056 43.408 21.2832ZM43.5427 20.0593V19.5092H41.0277V20.0593H43.5427ZM39.9722 20.0593V19.5092H37.4571V20.0593H39.9722ZM37.4571 18.8242H39.9722V18.2741H37.4571V18.8242ZM41.0277 18.2741V18.8242H43.5427V18.2741H41.0277ZM36.4354 22.7092L37.3898 22.9C37.1203 23.8656 36.7498 24.6965 36.267 25.4039L35.3912 24.8425C35.874 24.18 36.222 23.4727 36.4354 22.7092ZM42.1056 25.6172H39.1189C38.3778 25.6172 38.0073 25.2579 38.0073 24.5393V22.6642H39.0403V24.3148C39.0403 24.5281 39.1638 24.6404 39.4333 24.6404H41.9147C42.0719 24.6404 42.1954 24.5842 42.2627 24.4944C42.3526 24.3821 42.4199 24.0677 42.4536 23.54L43.4192 23.8544C43.3406 24.7077 43.1947 25.213 42.9926 25.3814C42.8017 25.5386 42.5098 25.6172 42.1056 25.6172ZM40.6235 22.3835C41.1736 22.8888 41.6003 23.3267 41.9035 23.7085L41.1063 24.2586C40.7919 23.8432 40.3652 23.3828 39.8263 22.8776L40.6235 22.3835ZM43.9919 22.4509C44.7217 23.2706 45.2831 24.0004 45.6761 24.6292L44.834 25.1906C44.4298 24.5169 43.8796 23.7758 43.1835 22.9562L43.9919 22.4509ZM50.2235 22.3386H48.8199V21.7548C48.281 22.159 47.7084 22.507 47.0796 22.8102L46.4957 21.912C47.5736 21.4516 48.4719 20.8453 49.2017 20.0818H46.8663V19.1162H49.9764C50.1898 18.7906 50.3806 18.4537 50.5491 18.1056H47.4838V17.1625H49.1119C48.8649 16.6123 48.5954 16.1295 48.3259 15.7028L49.2466 15.3997C49.5385 15.8713 49.7968 16.3653 50.0213 16.893L49.4375 17.1625H50.9308C51.1217 16.5786 51.2677 15.9723 51.3687 15.3211L52.4242 15.4558C52.3119 16.0621 52.1771 16.6235 52.0087 17.1625H53.9961L53.502 16.893C53.8501 16.4439 54.1308 15.9386 54.3554 15.3548L55.2424 15.6692C55.0066 16.2306 54.7259 16.7358 54.4003 17.1625H55.9722V18.1056H51.6606C51.5035 18.4537 51.335 18.7906 51.1554 19.1162H56.5898V20.0818H54.3778C54.928 20.7442 55.7926 21.3393 56.9603 21.8783L56.2642 22.7428C55.7027 22.4172 55.2087 22.0804 54.782 21.7323C54.7484 22.6306 54.6922 23.3604 54.6249 23.9442C54.535 24.5955 54.3778 25.0446 54.1645 25.3028C53.9512 25.5499 53.6143 25.6958 53.1652 25.7183H51.3687L51.088 24.719C51.6494 24.7414 52.1659 24.7639 52.6487 24.7639C53.0754 24.7639 53.3449 24.6067 53.4796 24.3148C53.6143 24.0004 53.7154 23.3492 53.7603 22.3386H51.2227C50.9982 23.1358 50.695 23.7758 50.3245 24.2474C49.8417 24.8313 49.1231 25.3477 48.1687 25.8081L47.495 24.966C48.3484 24.5955 48.9884 24.1913 49.4375 23.7534C49.7743 23.3941 50.0326 22.9225 50.2235 22.3386ZM50.5042 20.0818C50.1449 20.5421 49.7406 20.9688 49.314 21.3506H54.3442C53.895 20.9351 53.5357 20.5085 53.2663 20.0818H50.5042Z" fill="#A68552"/>
<path d="M18.0642 45.9013H20.6185V46.4907C20.3828 47.1667 20.1077 47.874 19.7933 48.6207C20.2884 49.3438 20.5557 49.9726 20.5871 50.5149C20.5871 50.8764 20.5085 51.1437 20.3513 51.3008C20.1155 51.4973 19.7147 51.5995 19.1331 51.6074L18.8894 50.8528C19.0466 50.8764 19.1802 50.8921 19.2903 50.8921C19.5103 50.8764 19.6518 50.845 19.7304 50.7978C19.8011 50.7428 19.8404 50.6485 19.8404 50.5149C19.8404 49.9804 19.5732 49.3909 19.0388 48.7307C19.3924 47.9448 19.6675 47.2295 19.8719 46.6008H18.7951V52.8964H18.0642V45.9013ZM21.6167 48.0077V48.7229H23.6995V48.0077H21.6167ZM23.6995 47.3317V46.6008H21.6167V47.3317H23.6995ZM22.3555 49.4067H21.6167V51.851C22.0411 51.7253 22.4577 51.5681 22.8664 51.3794L23.0393 52.0711C22.4656 52.3069 21.7425 52.5427 20.8701 52.7706L20.6893 52.1182C20.815 52.0711 20.8858 52.0004 20.8858 51.8982V45.8934H24.4305V49.4067H23.0236C23.1022 49.8075 23.2437 50.1769 23.4323 50.5227C23.7781 50.3184 24.1082 50.0276 24.4226 49.6503L24.9021 50.1298C24.5719 50.5227 24.1947 50.8293 23.7781 51.0493C24.1082 51.4816 24.5484 51.8589 25.0907 52.1733L24.6741 52.8335C23.3851 51.9925 22.607 50.8528 22.3555 49.4067ZM29.9895 46.1764V52.0632H29.2664V51.5759H28.3232V52.2519H27.5923V46.1764H29.9895ZM28.3232 50.8843H29.2664V49.1787H28.3232V50.8843ZM28.3232 48.4792H29.2664V46.8523H28.3232V48.4792ZM31.1684 48.55C31.6479 49.2809 32.0173 49.9175 32.2688 50.4677L31.6479 50.9C31.3728 50.3184 31.0034 49.6582 30.5475 48.9351L31.1684 48.55ZM32.8818 52.8099H31.4907L31.3256 52.0868C31.7815 52.1104 32.2138 52.1261 32.6303 52.1261C32.819 52.1261 32.9133 52.0239 32.9133 51.8196V47.7326H30.296V47.0173H32.9133V45.6969H33.6757V47.0173H34.5559V47.7326H33.6757V52.0082C33.6757 52.5427 33.4084 52.8099 32.8818 52.8099ZM41.3411 45.6969H42.0249C42.4336 46.6008 43.1331 47.3946 44.1391 48.0784L43.7304 48.6993C43.5339 48.5735 43.3531 48.4399 43.1881 48.2985V50.2398C43.1802 50.6721 42.9444 50.9 42.4886 50.9314C42.1899 50.9314 41.907 50.9157 41.6397 50.9L41.4511 50.2241C41.7341 50.2477 41.9856 50.2634 42.2056 50.2634C42.3785 50.2634 42.4729 50.1691 42.4729 49.9883V48.8172H40.9088V51.6702C40.9088 51.9375 41.0267 52.0711 41.2782 52.0711H42.6222C42.9523 52.0711 43.1566 52.0004 43.2352 51.8746C43.3138 51.7331 43.3767 51.4423 43.4239 51.01L44.1234 51.238C44.0448 51.9689 43.919 52.4091 43.7618 52.5505C43.6046 52.6841 43.2903 52.7549 42.8344 52.7549H40.9638C40.4294 52.7549 40.17 52.4798 40.17 51.9375V48.4399C40.0049 48.5814 39.8399 48.7072 39.6748 48.8251L39.274 48.212C40.17 47.5675 40.8538 46.7265 41.3411 45.6969ZM40.4686 48.157H43.023C42.4493 47.654 42.0013 47.0802 41.679 46.4436C41.3332 47.1195 40.9245 47.6854 40.4686 48.157ZM39.439 48.6836V49.4224C39.1875 49.556 38.936 49.6818 38.6845 49.7997V52.0397C38.6845 52.5584 38.4251 52.8178 37.9064 52.8178H37.2148L37.0497 52.0947C37.2619 52.1182 37.4584 52.134 37.647 52.134C37.8357 52.134 37.9378 52.0397 37.9378 51.851V50.114C37.6235 50.2319 37.3169 50.342 37.0025 50.4441L36.8218 49.7368C37.199 49.6425 37.5684 49.5324 37.9378 49.3909V47.7954H36.979V47.0802H37.9378V45.6576H38.6845V47.0802H39.384V47.7954H38.6845V49.0766C38.936 48.9508 39.1875 48.8251 39.439 48.6836ZM50.154 47.7876V48.5893C50.4841 48.5185 50.7985 48.4478 51.1129 48.3692L51.2229 48.9901C50.6963 49.1159 50.0754 49.2416 49.3523 49.3674L49.1715 48.7543C49.3444 48.6914 49.4388 48.5893 49.4388 48.4321V46.0663C50.6177 46.0034 51.7338 45.8541 52.7948 45.6183L53.1485 46.2078C52.7634 46.2942 52.3704 46.3728 51.9617 46.4357C51.9617 46.7029 51.9774 46.9387 52.0089 47.1352H53.3057V47.7876H52.1661C52.2525 48.0548 52.3547 48.2513 52.4726 48.3928C52.6141 48.5578 52.7477 48.6443 52.8656 48.6443C52.9599 48.6443 53.0699 48.4321 53.1878 48.0077L53.7301 48.3299C53.5179 48.9901 53.2507 49.3281 52.9363 49.3281C52.6691 49.3281 52.4097 49.218 52.1739 49.0137C51.9224 48.7936 51.7181 48.4635 51.5609 48.0234C51.5294 47.9448 51.5058 47.8662 51.4901 47.7876H50.154ZM51.3251 46.5222C50.9399 46.5615 50.547 46.6008 50.154 46.6322V47.1352H51.3722C51.3486 46.9387 51.3329 46.7344 51.3251 46.5222ZM53.0463 49.5088V52.8806H52.3232V52.5584H50.2247V52.8806H49.5174V49.5088H53.0463ZM50.2247 51.9139H52.3232V51.348H50.2247V51.9139ZM50.2247 50.7271H52.3232V50.1376H50.2247V50.7271ZM47.3324 45.6105L48.0633 45.6812C48.0004 46.1764 47.9297 46.6401 47.8668 47.0724H49.0065V47.4889C48.9593 48.7465 48.7471 49.8389 48.3856 50.7585C48.7157 51.0965 48.9829 51.403 49.203 51.6781L48.7078 52.2519C48.5192 52.0082 48.307 51.741 48.0555 51.458C47.7411 52.0239 47.3638 52.5112 46.9237 52.9199L46.4521 52.3305C46.9001 51.9375 47.2695 51.4659 47.5524 50.9157C47.2538 50.6092 46.9315 50.2869 46.5778 49.949C46.7508 49.2809 46.9001 48.5578 47.0337 47.7876H46.4599V47.0724H47.1437C47.2145 46.6008 47.2774 46.1135 47.3324 45.6105ZM47.8511 50.2319C48.1105 49.5088 48.2677 48.6993 48.3148 47.7876H47.7568C47.6153 48.5657 47.466 49.218 47.3166 49.7368C47.5053 49.9097 47.6782 50.0747 47.8511 50.2319ZM57.3714 47.2531H61.8042V49.6503H59.1162L59.6978 49.8232C59.5878 49.949 59.4778 50.0669 59.3835 50.1769H62.9517V50.8371H61.5134C61.2619 51.1829 61.0025 51.4659 60.7275 51.686C61.4663 51.8667 62.2286 52.0789 63.0146 52.3305L62.5666 52.9199C61.7021 52.637 60.8296 52.3855 59.9494 52.1654C59.0455 52.6055 57.8823 52.8413 56.4597 52.8649L56.0667 52.2361C57.1906 52.2361 58.1338 52.1261 58.8883 51.9139C58.3067 51.7724 57.7172 51.6545 57.1277 51.5524C57.3871 51.3087 57.6308 51.0729 57.8665 50.8371H56.2239V50.1769H58.4875C58.6446 49.9961 58.8018 49.8232 58.9512 49.6503H57.3714V47.2531ZM59.9101 51.4973C60.2323 51.3087 60.5074 51.0886 60.7275 50.8371H58.7547C58.6132 50.9629 58.4875 51.0886 58.3696 51.1987C58.8726 51.2773 59.3835 51.3794 59.9101 51.4973ZM61.1126 49.0766V48.7307H58.063V49.0766H61.1126ZM58.063 48.1884H61.1126V47.8269H58.063V48.1884ZM62.8967 46.2392V47.9291H62.1658V46.8994H57.0098V47.9291H56.2789V46.2392H59.2184C59.1398 46.0506 59.0612 45.8698 58.9826 45.7126L59.7607 45.5869C59.8393 45.7755 59.9101 45.9956 59.9808 46.2392H62.8967Z" fill="white"/>
<path d="M25.5914 56.3974H25.8833C26.1213 56.9319 26.53 57.399 27.1139 57.8032L26.9387 58.0727C26.3998 57.7044 25.9956 57.2552 25.7351 56.7208C25.515 57.1609 25.2545 57.5292 24.9491 57.8256H26.557V58.9395C26.5525 59.1865 26.4267 59.3167 26.1842 59.3302C26.0136 59.3302 25.8519 59.3212 25.6992 59.3122L25.6183 59.0158C25.78 59.0293 25.9327 59.0383 26.0719 59.0383C26.1842 59.0383 26.2426 58.9709 26.2426 58.8451V58.1131H25.2366V59.8691C25.2366 60.0218 25.3084 60.0982 25.4521 60.0982H26.3055C26.4986 60.0982 26.6199 60.0578 26.6693 59.9769C26.7142 59.8826 26.7546 59.6985 26.7816 59.429L27.0825 59.5278C27.042 59.9365 26.9747 60.188 26.8848 60.2823C26.7995 60.3587 26.6333 60.3991 26.3908 60.3991H25.3309C25.0524 60.3991 24.9132 60.2554 24.9132 59.9769V57.8616C24.7919 57.9694 24.6707 58.0682 24.5539 58.1535L24.3832 57.884C24.9042 57.5023 25.3039 57.0082 25.5914 56.3974ZM24.4551 58.1355V58.4589C24.2934 58.5442 24.1362 58.6206 23.9745 58.6924V60.0218C23.9745 60.2913 23.8398 60.4261 23.5748 60.4261H23.1796L23.1122 60.1162C23.2335 60.1251 23.3503 60.1341 23.4625 60.1341C23.5838 60.1341 23.6467 60.0668 23.6467 59.9365V58.8317C23.4491 58.908 23.2514 58.9799 23.0538 59.0428L22.973 58.7374C23.2065 58.679 23.4311 58.6071 23.6467 58.5218V57.5292H23.0628V57.2193H23.6467V56.3705H23.9745V57.2193H24.4102V57.5292H23.9745V58.3825C24.1362 58.3062 24.2979 58.2254 24.4551 58.1355ZM31.5288 59.7254V60.0443C30.8371 60.188 30.0916 60.3138 29.2921 60.4126L29.2203 60.1027C29.5796 60.0623 29.9299 60.0174 30.2712 59.9635V59.1146H29.3954V58.8002H30.2712V58.2792H30.5946V58.8002H31.403V59.1146H30.5946V59.9096C30.9135 59.8557 31.2234 59.7928 31.5288 59.7254ZM29.2787 56.5546H31.5108V56.86H30.3566C30.141 57.3091 29.9389 57.646 29.7503 57.875C30.1949 57.8301 30.6171 57.7762 31.0213 57.7044C30.9225 57.5427 30.8102 57.381 30.6889 57.2148L30.9359 57.0531C31.2368 57.4574 31.4659 57.8122 31.6276 58.1131L31.3581 58.3017C31.2997 58.1849 31.2368 58.0682 31.165 57.9469C30.5991 58.0457 29.9748 58.131 29.3011 58.1984L29.2248 57.9065C29.2787 57.8975 29.3236 57.8885 29.355 57.875C29.5392 57.7134 29.7592 57.3765 30.0152 56.86H29.2787V56.5546ZM32.6965 60.435H32.0363L31.9644 60.1207C32.18 60.1296 32.3866 60.1386 32.5842 60.1386C32.71 60.1386 32.7773 60.0712 32.7773 59.941V56.3705H33.1052V60.0218C33.1052 60.2958 32.966 60.435 32.6965 60.435ZM31.8791 56.7747H32.1935V59.5548H31.8791V56.7747ZM39.0471 60.4036H38.7686C38.5486 60.4036 38.4408 60.2823 38.4408 60.0488V57.7134H38.1938C38.1668 58.935 37.8928 59.8377 37.3764 60.4171L37.1473 60.215C37.6189 59.685 37.8659 58.8496 37.8928 57.7134H37.4572V57.4124H37.8973V56.3615H38.1983V57.4124H39.339V57.7134H38.7417V59.9814C38.7417 60.0668 38.7821 60.1117 38.863 60.1117H38.9932C39.0471 60.1117 39.0875 60.0757 39.11 60.0084C39.1414 59.923 39.1639 59.6715 39.1728 59.2583L39.4513 59.3482C39.4288 59.8512 39.3839 60.1521 39.3211 60.2599C39.2582 60.3542 39.1684 60.4036 39.0471 60.4036ZM35.4272 56.8151H36.3209C36.258 56.6624 36.1817 56.5277 36.1008 56.4064L36.4467 56.3525C36.514 56.4872 36.5814 56.6444 36.6443 56.8151H37.4707V57.1115H35.4272V56.8151ZM35.6203 57.4798H37.2371V58.6026H36.5949V60.0757C36.5949 60.3138 36.4781 60.435 36.2491 60.435H35.9077L35.8448 60.1431C35.9526 60.1566 36.0514 60.1656 36.1458 60.1656C36.2401 60.1656 36.2895 60.1072 36.2895 59.9994V58.6026H35.6203V57.4798ZM36.9362 58.3242V57.7583H35.9167V58.3242H36.9362ZM35.7236 58.8496L35.9886 58.9215C35.8898 59.3257 35.764 59.6805 35.6113 59.9859L35.3463 59.8871C35.49 59.6131 35.6158 59.2673 35.7236 58.8496ZM37.0799 58.8407C37.2102 59.1416 37.309 59.42 37.3808 59.6715L37.1204 59.7703C37.0395 59.4784 36.9407 59.191 36.8194 58.9125L37.0799 58.8407ZM38.7282 56.4199C38.9438 56.6714 39.1055 56.8915 39.2223 57.0801L38.9797 57.2418C38.863 57.0397 38.6968 56.8151 38.4857 56.5681L38.7282 56.4199ZM42.2404 56.5097H44.971V58.0682H42.2404V56.5097ZM44.6521 57.7942V57.4259H42.5592V57.7942H44.6521ZM42.5592 57.1609H44.6521V56.7882H42.5592V57.1609ZM43.4754 58.6969H41.6026V58.4005H45.5773V58.6969H43.8033V59.2044H45.0968V59.4919H43.8033V60.0892C44.0189 60.1072 44.2794 60.1207 44.5758 60.1207C44.962 60.1207 45.2899 60.1162 45.5549 60.1072L45.4651 60.4126C45.1417 60.4126 44.8543 60.4081 44.5983 60.4036C43.8572 60.4036 43.3542 60.3452 43.0892 60.2329C42.8601 60.1296 42.6536 59.932 42.4739 59.6356C42.2987 59.968 42.0742 60.2419 41.8047 60.462L41.5936 60.197C42.0068 59.8647 42.2898 59.4155 42.438 58.8541L42.7434 58.908C42.6985 59.0742 42.6491 59.2314 42.5907 59.3796C42.7793 59.694 42.9949 59.8916 43.2284 59.9769C43.3003 59.9994 43.3811 60.0218 43.4754 60.0398V58.6969ZM51.5462 59.0877H51.0342C51.1914 59.438 51.4564 59.7524 51.8336 60.0308L51.627 60.2868C51.3216 59.9904 51.0971 59.667 50.9444 59.3167V60.4665H50.6614V59.0877H50.3111V60.4665H50.0281V59.3347C49.8754 59.7209 49.6599 60.0488 49.3724 60.3183L49.2691 60.1521L49.1344 60.2868C49.0176 60.0982 48.8604 59.9006 48.6628 59.694L48.8514 59.5143C49.0131 59.6715 49.1568 59.8287 49.2736 59.9904C49.57 59.7479 49.7856 59.447 49.9248 59.0877H49.5341V58.8317H50.0281V58.4275H49.4128V58.167H50.0281V57.7717H49.5656V57.5157H50.0281V57.1609H49.4443V56.8735H50.0147C49.9518 56.7028 49.8799 56.5501 49.7991 56.4064L50.118 56.3525C50.1853 56.5052 50.2482 56.6759 50.3066 56.8735H50.7378C50.8141 56.6983 50.8725 56.5187 50.9084 56.3345L51.2228 56.3795C51.1779 56.5591 51.1195 56.7208 51.0477 56.8735H51.6944V57.1609H50.9444V57.5157H51.5462V58.167H51.8157V58.4275H51.5462V59.0877ZM50.6614 57.5157V57.1609H50.3111V57.5157H50.6614ZM50.3111 57.7717V58.167H50.6614V57.7717H50.3111ZM50.9444 57.7717V58.167H51.2722V57.7717H50.9444ZM50.3111 58.4275V58.8317H50.6614V58.4275H50.3111ZM50.9444 58.4275V58.8317H51.2722V58.4275H50.9444ZM49.2601 56.5816V59.2943H48.9772V56.878H48.1598V59.3706H47.8724V56.5816H49.2601ZM48.4383 57.1969H48.6987V58.6475C48.6898 59.1461 48.6179 59.5458 48.4787 59.8422C48.3484 60.1207 48.1328 60.3362 47.8274 60.4934L47.6658 60.2374C47.9532 60.0892 48.1553 59.8916 48.2721 59.6491C48.3754 59.3886 48.4293 59.0562 48.4383 58.6475V57.1969ZM56.2305 59.7254V60.0443C55.5389 60.188 54.7933 60.3138 53.9939 60.4126L53.922 60.1027C54.2813 60.0623 54.6317 60.0174 54.973 59.9635V59.1146H54.0972V58.8002H54.973V58.2792H55.2964V58.8002H56.1048V59.1146H55.2964V59.9096C55.6152 59.8557 55.9251 59.7928 56.2305 59.7254ZM53.9804 56.5546H56.2126V56.86H55.0583C54.8427 57.3091 54.6406 57.646 54.452 57.875C54.8966 57.8301 55.3188 57.7762 55.723 57.7044C55.6242 57.5427 55.5119 57.381 55.3907 57.2148L55.6377 57.0531C55.9386 57.4574 56.1677 57.8122 56.3293 58.1131L56.0599 58.3017C56.0015 58.1849 55.9386 58.0682 55.8667 57.9469C55.3008 58.0457 54.6766 58.131 54.0029 58.1984L53.9265 57.9065C53.9804 57.8975 54.0253 57.8885 54.0568 57.875C54.2409 57.7134 54.461 57.3765 54.717 56.86H53.9804V56.5546ZM57.3983 60.435H56.738L56.6662 60.1207C56.8818 60.1296 57.0884 60.1386 57.286 60.1386C57.4117 60.1386 57.4791 60.0712 57.4791 59.941V56.3705H57.807V60.0218C57.807 60.2958 57.6677 60.435 57.3983 60.435ZM56.5808 56.7747H56.8952V59.5548H56.5808V56.7747Z" fill="white"/>
</g>
<defs>
<filter id="filter0_d_8150_4770" x="4.5" y="0.377197" width="72" height="74.2457" filterUnits="userSpaceOnUse" color-interpolation-filters="sRGB">
<feFlood flood-opacity="0" result="BackgroundImageFix"/>
<feColorMatrix in="SourceAlpha" type="matrix" values="0 0 0 0 0 0 0 0 0 0 0 0 0 0 0 0 0 0 127 0" result="hardAlpha"/>
<feOffset dy="1"/>
<feGaussianBlur stdDeviation="2"/>
<feComposite in2="hardAlpha" operator="out"/>
<feColorMatrix type="matrix" values="0 0 0 0 0.895833 0 0 0 0 0.279948 0 0 0 0 0.279948 0 0 0 0.25 0"/>
<feBlend mode="normal" in2="BackgroundImageFix" result="effect1_dropShadow_8150_4770"/>
<feBlend mode="normal" in="SourceGraphic" in2="effect1_dropShadow_8150_4770" result="shape"/>
</filter>
<filter id="filter1_d_8150_4770" x="6.25439" y="21.3421" width="68.4912" height="49.4035" filterUnits="userSpaceOnUse" color-interpolation-filters="sRGB">
<feFlood flood-opacity="0" result="BackgroundImageFix"/>
<feColorMatrix in="SourceAlpha" type="matrix" values="0 0 0 0 0 0 0 0 0 0 0 0 0 0 0 0 0 0 127 0" result="hardAlpha"/>
<feOffset dy="-1.12281"/>
<feGaussianBlur stdDeviation="1.12281"/>
<feComposite in2="hardAlpha" operator="out"/>
<feColorMatrix type="matrix" values="0 0 0 0 0.920833 0 0 0 0 0 0 0 0 0 0 0 0 0 0.3 0"/>
<feBlend mode="normal" in2="BackgroundImageFix" result="effect1_dropShadow_8150_4770"/>
<feBlend mode="normal" in="SourceGraphic" in2="effect1_dropShadow_8150_4770" result="shape"/>
</filter>
<linearGradient id="paint0_linear_8150_4770" x1="40.5" y1="10.1141" x2="40.5" y2="69.6228" gradientUnits="userSpaceOnUse">
<stop stop-color="#FF7D68"/>
<stop offset="0.552976" stop-color="#E03111"/>
</linearGradient>
<linearGradient id="paint1_linear_8150_4770" x1="81.3421" y1="51.1918" x2="-1.46491" y2="51.1918" gradientUnits="userSpaceOnUse">
<stop stop-color="#FE6546"/>
<stop offset="0.5" stop-color="#FB2D2F"/>
<stop offset="1" stop-color="#FE6546"/>
</linearGradient>
<linearGradient id="paint2_linear_8150_4770" x1="81.3421" y1="51.1918" x2="-1.46491" y2="51.1918" gradientUnits="userSpaceOnUse">
<stop stop-color="#FE6546"/>
<stop offset="0.5" stop-color="#FB2D2F"/>
<stop offset="1" stop-color="#FE6546"/>
</linearGradient>
<linearGradient id="paint3_linear_8150_4770" x1="23.6579" y1="44.0605" x2="7.47371" y2="44.0605" gradientUnits="userSpaceOnUse">
<stop stop-color="white" stop-opacity="0"/>
<stop offset="1" stop-color="white"/>
</linearGradient>
<linearGradient id="paint4_linear_8150_4770" x1="23.0175" y1="19.6307" x2="6.83333" y2="19.6307" gradientUnits="userSpaceOnUse">
<stop stop-color="white" stop-opacity="0"/>
<stop offset="1" stop-color="white"/>
</linearGradient>
</defs>
</svg>
