<svg width="228" height="60" viewBox="0 0 228 60" fill="none" xmlns="http://www.w3.org/2000/svg">
<rect width="228" height="60" rx="30" fill="url(#paint0_linear_8556_3405)"/>
<g filter="url(#filter0_i_8556_3405)">
<rect width="228" height="60" rx="30" fill="#FBA27B" fill-opacity="0.01"/>
</g>
<g filter="url(#filter1_d_8556_3405)">
<path d="M55.84 28.55L54.58 37.55H33.55L34.81 28.55H55.84ZM32.95 28.19L36.55 23.48H33.94L34.27 21.08H43.72L43.78 20.72L42.43 19.67H49.33L49.12 21.08H58.03L57.7 23.48H55.63L57.19 28.19H51.73L50.17 23.48H48.79L48.16 28.16H42.73L43.39 23.48H42.01L38.41 28.19H32.95ZM56.11 38.18L55.75 40.79H31.54L31.9 38.18H56.11ZM39.91 32.09H50.02L50.2 30.95H40.09L39.91 32.09ZM49.63 35.03L49.75 34.04H39.64L39.52 35.03H49.63ZM65.0777 26.51L65.7677 25.67H61.4477L61.7477 23.39H67.5977L68.4377 22.37L61.2977 22.52L61.6277 20.24L85.6577 19.67L85.3277 21.95L75.3977 22.19L74.4377 23.39H84.5477L84.2477 25.67H72.6077L71.9177 26.51H84.6977L84.3677 28.79H70.0877L69.3977 29.66H83.3777L81.7277 41.27H60.9377L61.9877 33.92H59.1377L63.2477 28.79H60.4277L60.7577 26.51H65.0777ZM76.9277 39.05L77.0777 38H66.5477L66.3977 39.05H76.9277ZM66.8177 36.02H77.3477L77.4977 34.97H66.9677L66.8177 36.02ZM67.2377 32.96H77.7677L77.9177 31.94H67.3877L67.2377 32.96ZM103.445 23.03L103.745 20.84L102.545 19.7H108.695L108.215 23.03H113.675L111.185 40.67H95.4953L97.9853 23.03H103.445ZM89.6753 31.04L90.3353 26.21H88.2353L88.6553 23.27H90.7553L91.1453 20.57L90.4253 19.7H96.3353L95.8253 23.27H97.2653L96.8453 26.21H95.4053L94.9253 29.57L96.4853 29.15L96.0353 32.3L94.4753 32.75L93.5753 39.26C93.4953 39.84 93.2253 40.32 92.7653 40.7C92.3253 41.06 91.8253 41.24 91.2653 41.24H86.2853L88.6253 38.54L89.2253 34.28L86.9753 34.94L87.4553 31.64L89.6753 31.04ZM107.225 37.82L107.885 33.08H106.805L106.145 37.82H107.225ZM101.375 37.82L102.035 33.08H100.985L100.325 37.82H101.375ZM107.825 25.88L107.195 30.23H108.275L108.905 25.88H107.825ZM101.375 30.23H102.425L103.025 25.88H102.005L101.375 30.23ZM120.303 35.63H115.323L115.713 32.78H123.543L124.833 31.64H131.913L130.623 32.78H139.653L139.263 35.63H133.743L139.023 41.27H131.643L126.993 35.99L121.023 41.27H113.943L120.303 35.63ZM135.123 19.67L134.403 20.81H141.243L140.703 24.8L135.903 31.04H126.093L126.513 28.19H127.743L127.053 25.34H131.703L132.393 28.19H132.753L135.813 23.66H132.663L131.973 24.77H126.663L129.483 20.42L128.853 19.67H135.123ZM120.153 29.57L115.983 31.07L116.463 27.74L120.633 26.24L120.753 25.22L116.913 24.5L117.363 21.35L121.203 22.07L121.383 20.87L120.543 19.67H126.903L125.313 31.01H119.973L120.153 29.57ZM166.801 31.61L165.541 40.67H151.921L153.181 31.61H166.801ZM143.671 26.54L147.781 20.45L147.061 19.7H153.721L149.131 26.54H152.761L148.171 33.38H151.831L151.441 36.23H142.321L142.711 33.38L145.411 29.39H143.281L143.671 26.54ZM158.761 22.01L158.941 20.81L157.951 19.67H164.131L163.801 22.01H168.721L168.331 24.86H163.411L163.051 27.29H167.461L167.041 30.14H153.421L153.841 27.29H158.011L158.371 24.86H153.541L153.931 22.01H158.761ZM150.871 40.13L141.661 40.73L142.051 37.88L151.291 37.28L150.871 40.13ZM161.401 37.85L161.881 34.4H157.321L156.841 37.85H161.401ZM169.648 40.76L175.618 33.35H171.268L171.658 30.5H180.778L180.958 29.36H172.978L174.088 21.38L173.098 20.24H195.898L194.638 29.36H186.658L186.478 30.5H195.598L195.208 33.35H190.828L194.728 40.76H189.028L185.878 34.79L184.978 41.27H179.278L180.178 34.76L175.348 40.76H169.648ZM181.258 27.08L181.438 25.94H178.558L178.408 27.08H181.258ZM187.618 22.52L187.438 23.66H190.288L190.468 22.52H187.618ZM178.888 23.66H181.738L181.918 22.52H179.068L178.888 23.66ZM189.808 27.08L189.958 25.94H187.138L186.958 27.08H189.808Z" fill="#FFF7E4"/>
</g>
<defs>
<filter id="filter0_i_8556_3405" x="0" y="0" width="228" height="64" filterUnits="userSpaceOnUse" color-interpolation-filters="sRGB">
<feFlood flood-opacity="0" result="BackgroundImageFix"/>
<feBlend mode="normal" in="SourceGraphic" in2="BackgroundImageFix" result="shape"/>
<feColorMatrix in="SourceAlpha" type="matrix" values="0 0 0 0 0 0 0 0 0 0 0 0 0 0 0 0 0 0 127 0" result="hardAlpha"/>
<feOffset dy="4"/>
<feGaussianBlur stdDeviation="12.4"/>
<feComposite in2="hardAlpha" operator="arithmetic" k2="-1" k3="1"/>
<feColorMatrix type="matrix" values="0 0 0 0 1 0 0 0 0 1 0 0 0 0 0.654902 0 0 0 0.6 0"/>
<feBlend mode="normal" in2="shape" result="effect1_innerShadow_8556_3405"/>
</filter>
<filter id="filter1_d_8556_3405" x="27.54" y="19.67" width="172.358" height="29.6" filterUnits="userSpaceOnUse" color-interpolation-filters="sRGB">
<feFlood flood-opacity="0" result="BackgroundImageFix"/>
<feColorMatrix in="SourceAlpha" type="matrix" values="0 0 0 0 0 0 0 0 0 0 0 0 0 0 0 0 0 0 127 0" result="hardAlpha"/>
<feOffset dy="4"/>
<feGaussianBlur stdDeviation="2"/>
<feComposite in2="hardAlpha" operator="out"/>
<feColorMatrix type="matrix" values="0 0 0 0 0 0 0 0 0 0 0 0 0 0 0 0 0 0 0.25 0"/>
<feBlend mode="normal" in2="BackgroundImageFix" result="effect1_dropShadow_8556_3405"/>
<feBlend mode="normal" in="SourceGraphic" in2="effect1_dropShadow_8556_3405" result="shape"/>
</filter>
<linearGradient id="paint0_linear_8556_3405" x1="114" y1="0" x2="114" y2="60" gradientUnits="userSpaceOnUse">
<stop offset="0.0001" stop-color="#FBA27B"/>
<stop offset="1" stop-color="#F24F3A"/>
</linearGradient>
</defs>
</svg>
