<svg width="279" height="279" viewBox="0 0 279 279" fill="none" xmlns="http://www.w3.org/2000/svg">
<g clip-path="url(#clip0_164_5)">
<circle cx="139.5" cy="139.5" r="139.5" fill="black" fill-opacity="0.4"/>
<path d="M73.912 75.408H131.944V109.32H126.328V80.736H79.312V109.68H73.912V75.408ZM76.792 99.888H129.568V105.144H76.792V99.888ZM99.976 62.52H105.592V128.688H99.976V62.52ZM143.32 103.344H206.464V108.168H143.32V103.344ZM172.408 97.872H178.096C175.792 113.856 170.248 124.368 144.688 128.832C144.256 127.464 143.032 125.376 142.096 124.296C166.144 120.48 170.464 111.48 172.408 97.872ZM178.6 106.728C182.92 116.736 192.928 121.92 208.192 123.504C206.968 124.656 205.528 126.888 204.88 128.328C188.968 125.952 178.888 119.904 173.704 107.808L178.6 106.728ZM144.256 68.424L148.432 66.336C151.24 69.72 154.264 74.328 155.344 77.424L150.952 79.872C149.872 76.776 146.992 71.952 144.256 68.424ZM159.088 62.52H164.272V97.944H159.088V62.52ZM142.312 88.944C146.92 86.928 153.76 83.544 160.456 80.16L161.896 84.48C155.992 87.648 149.656 91.032 144.688 93.624L142.312 88.944ZM176.008 79.44L179.968 77.064C183.712 79.944 188.104 84.264 190.264 87.216L186.088 89.88C184.072 86.928 179.752 82.536 176.008 79.44ZM179.32 68.64H202.648V73.32H179.32V68.64ZM181.984 62.304L187.168 64.032C183.712 70.512 177.232 77.064 170.392 80.952C169.672 79.8 168.16 77.928 167.08 76.992C173.416 73.608 179.392 67.776 181.984 62.304ZM201.712 68.64H202.864L203.8 68.496L207.04 70.08C201.208 87.504 186.808 94.56 169.024 97.728C168.52 96.432 167.08 94.272 166.144 93.264C183.424 90.744 196.816 84.552 201.712 69.576V68.64ZM93.208 207.912H127.984V212.88H93.208V207.912ZM90.76 156.792H117.184V161.616H90.76V156.792ZM94 149.304L100.048 150.528C94.648 159.888 86.008 169.68 73.48 177.096C72.688 175.728 70.888 173.856 69.664 172.92C81.544 166.44 89.824 157.152 94 149.304ZM115.384 156.792H116.392L117.4 156.504L121 158.448C112.36 180.192 92.056 194.664 72.472 201C71.824 199.56 70.456 197.328 69.304 196.176C87.952 190.776 107.896 176.664 115.384 157.728V156.792ZM81.76 169.608L85.792 166.152C91.48 170.04 98.392 175.8 101.704 179.904L97.312 183.792C94.288 179.688 87.448 173.64 81.76 169.608ZM125.32 185.16H130.864V215.904H125.32V185.16ZM95.656 185.16H128.056V190.128H95.656V215.76H90.256V189.408L94.576 185.16H95.656ZM171.976 164.496H177.592V215.688H171.976V164.496ZM154.912 178.608V186.312H195.448V178.608H154.912ZM154.912 166.584V174.288H195.448V166.584H154.912ZM149.656 161.976H200.992V190.92H149.656V161.976ZM142.816 197.76H207.256V202.8H142.816V197.76ZM155.92 152.04L160.528 149.88C163.408 153.12 166.792 157.584 168.232 160.536L163.408 162.984C162.04 160.032 158.8 155.352 155.92 152.04ZM190.048 149.88L195.88 151.752C193 156.36 189.4 161.544 186.664 164.856L182.056 163.056C184.72 159.528 188.176 153.912 190.048 149.88Z" fill="white"/>
</g>
<defs>
<clipPath id="clip0_164_5">
<rect width="279" height="279" fill="white"/>
</clipPath>
</defs>
</svg>
